<svg id="Calque_1" data-name="Calque 1" xmlns="http://www.w3.org/2000/svg" viewBox="0 0 2232.32 1224.08"><defs><style>.cls-1{fill:#fff;}.cls-2{fill:#0052a0;}.cls-3{fill:#004996;}.cls-4{fill:#014996;}</style></defs><title>Monogramme E+ bleu (utilisation sur fond blanc ou couleur claire)</title><g id="Calque_4" data-name="Calque 4"><g id="Calque_2" data-name="Calque 2"><path class="cls-1" d="M1301.39,175.09c.58,2.29-.46,4.28-1,6.34q-39.53,148.83-79.08,297.66Q1161.53,704,1101.73,929c-1.59,6-1.6,6-7.68,6H520.27c-6.44,0-6.2.34-6.19-6.52q0-21.42,0-42.84,0-57.45,0-114.89a70.23,70.23,0,0,0-.47-9.06c-1-7.33-5.18-11.62-12.61-12.71a66.83,66.83,0,0,0-9.71-.37q-281,0-562.09,0a68,68,0,0,1-7.14-.14c-7.76-.83-12.57-5.62-13.5-13.4a47.14,47.14,0,0,1-.18-5.83q0-125.91,0-251.84c0-1.51,0-3,.05-4.54.56-9.07,5.6-14.22,14.76-14.94,3-.23,6-.15,9.08-.15q259.62,0,519.25,0a49.46,49.46,0,0,0,9-.47C467.24,456,471,451.92,472.14,445a52.33,52.33,0,0,0,.64-8.39q.06-98,0-196a51.2,51.2,0,0,0-.64-8.39c-1.25-7.48-5.27-11.36-12.89-12.38a68.37,68.37,0,0,0-9.06-.39l-517.95,0A94.31,94.31,0,0,1-78.13,219c-7.86-.86-12.53-5.63-13.37-13.43a56.67,56.67,0,0,1-.14-5.83q0-117.81,0-235.62v-1.94c.12-14.17,5.53-19.56,19.73-19.56H489.52c3.46,0,6.94.06,10.38-.23,8.06-.69,12.66-5.07,13.71-13a65.45,65.45,0,0,0,.45-8.41q0-92.82,0-185.63c0-3.87-.38-7.74-.59-11.67,1.65-1.33,3.68-.73,5.56-.73q163.23,0,326.48,0c1.08,0,2.16.05,3.24,0,2.14-.1,3.22.79,3.15,3-.06,1.73,0,3.46,0,5.19V-19.59c0,13.92-3.7,17.69-17.7,17.69q-156.42,0-312.85,0a71.58,71.58,0,0,0-8.42.23c-8.11,1-12.34,5.44-13,13.59-.18,2.15-.1,4.32-.1,6.49V152.79c0,18.33,3.47,21.75,22.13,21.75H830.24c2.38,0,4.76-.08,7.13.06,8.78.5,13.44,4.91,14.36,13.66a67.76,67.76,0,0,1,.15,7.13q0,142.8,0,285.59c0,2.16-.06,4.33.05,6.49.42,8.55,4.56,13,13.07,14.14a45.47,45.47,0,0,0,5.84.18h161c12.88.25,18-5.86,18-18.12q-.29-144.74-.1-289.47a58.35,58.35,0,0,1,.17-7.13c.92-7.32,5.42-11.64,12.79-12.38a63.58,63.58,0,0,1,6.48-.16q112.62,0,225.23,0C1296.71,174.56,1299.12,174.07,1301.39,175.09Z" transform="translate(810.37 282.25)"/><path class="cls-1" d="M-273.08,935H-803.2c-9.27,0-7.57-.25-5.72-7.21q87.18-328.36,174.47-656.69Q-562.72,1-491-269.08c2.4-9.05.27-7.94,10-7.94q148,0,296,0h8c-1.43,1.85-3,2-4.34,2.36C-236.73-258.07-277-223-305.21-173.37c-17.76,31.22-28,65-33.1,100.4-2.93,20.39-3.87,40.87-3.87,61.45q.07,397.22-.24,794.43c-.1,45.68,14.57,85.05,41.66,120.73a222.73,222.73,0,0,0,23.88,26.47C-275.65,931.28-274.06,932.15-273.08,935Z" transform="translate(810.37 282.25)"/><path class="cls-1" d="M1421.94-276.27c-3,11.46-6,22.94-9,34.41q-31,116.55-62,233.09c-.38,1.46-.86,2.91-1.16,4.39a2.72,2.72,0,0,1-3.13,2.5c-1.51-.06-3,0-4.55,0q-136.29,0-272.59.1c-15.26,0-20-5.56-20-20.1.29-82.43.13-164.85.16-247.28,0-9-1.14-7.86,8-7.86q178.49,0,357,0C1417-277,1419.35-277.55,1421.94-276.27Z" transform="translate(810.37 282.25)"/></g><g id="Calque_3" data-name="Calque 3"><path class="cls-2" d="M-346.84,381.24c0-137.22-.25-274.44.14-411.66.14-50.16,10.53-98.22,34.6-142.71,28.22-52.16,69.46-89,126.84-106.45a49.64,49.64,0,0,1,14.64-2.67q339.69.11,679.39.07c8.19,0,8.7.28,8.7,8.2q.09,98.24,0,196.46c0,11.14-5.47,16.47-16.52,17.09-2.5.14-5,0-7.5,0H-69c-2.75,0-5.5-.07-8.25,0-10.63.39-16,5.45-17.07,16-.19,2-.11,4-.11,6q0,117.73,0,235.46a48.79,48.79,0,0,0,.62,9.68c1.49,7.34,5.87,11.25,13.33,12.07a96.5,96.5,0,0,0,10.49.28q261.33,0,522.67,0c2.74,0,5.51-.15,8.24.1,8.64.8,13.56,5.72,14.44,14.41a80.82,80.82,0,0,1,.23,8.24q0,97.86,0,195.71a70.45,70.45,0,0,1-.25,8.23c-.94,7.93-5.73,12.63-13.67,13.41-3,.29-6,.19-9,.19H-73.68c-15.74.06-20.73,5-20.73,20.58q0,126,0,252a46.77,46.77,0,0,0,.57,8.94c1.52,7.78,6,11.67,13.85,12.33,3,.25,6,.15,9,.15H492.93c2.25,0,4.5,0,6.75,0,12.08.34,17.7,5.51,17.74,17.42.14,55.24,0,110.48.14,165.72,0,3.77-.95,5.69-5,5.18a37.52,37.52,0,0,0-4.5,0q-387.69,0-775.38.13A19,19,0,0,1-281.82,936c-31.12-30.4-53.34-65.83-62.43-108.82-2.45-11.56-2.7-23.29-2.7-35.05q0-205.45,0-410.92Z" transform="translate(810.37 282.25)"/><path class="cls-2" d="M1360.36-4.35c-1.23,9.23-4.07,17.49-6.28,25.86q-19,72-38.35,144c-2.16,8.08-2.16,8.09-10.2,8.09H1079.79c-17.69,0-21.14,3.43-21.14,20.9V481c0,2.25.06,4.5,0,6.75-.42,10.95-5.2,15.73-16.28,16.33-1.74.09-3.5.07-5.24.07H880.36a71.9,71.9,0,0,1-7.49-.21c-9.13-.95-13.31-5.36-13.84-14.54-.16-2.74-.11-5.5-.11-8.25V196.89c0-20.25-3.08-23.3-23.55-23.3h-309c-20,0-23.06-3.05-23.07-23q0-66.38,0-132.74c0-2,0-4,.06-6,.51-11,5.25-15.8,16.3-16.16,4.74-.16,9.5,0,14.25,0h303c19.71,0,22-2.32,22-21.9q0-123.73,0-247.47c0-9.62-1-8.45,8.3-8.45q91.88-.06,183.74,0c7.64,0,7.67,0,7.67,7.68V-26.29c0,2.75-.08,5.51.12,8.25.58,8.09,5.14,12.79,13.25,13.52,3.23.29,6.5.17,9.74.17h278.6Z" transform="translate(810.37 282.25)"/></g></g><g id="Calque_7" data-name="Calque 7"><g id="Calque_5" data-name="Calque 5"><path class="cls-3" d="M1301.39,175.09c.58,2.29-.46,4.28-1,6.34q-39.53,148.83-79.08,297.66Q1161.53,704,1101.73,929c-1.59,6-1.6,6-7.68,6H520.27c-6.44,0-6.2.34-6.19-6.52q0-21.42,0-42.84,0-57.45,0-114.89a70.23,70.23,0,0,0-.47-9.06c-1-7.33-5.18-11.62-12.61-12.71a66.83,66.83,0,0,0-9.71-.37q-281,0-562.09,0a68,68,0,0,1-7.14-.14c-7.76-.83-12.57-5.62-13.5-13.4a47.14,47.14,0,0,1-.18-5.83q0-125.91,0-251.84c0-1.51,0-3,.05-4.54.56-9.07,5.6-14.22,14.76-14.94,3-.23,6-.15,9.08-.15q259.62,0,519.25,0a49.46,49.46,0,0,0,9-.47C467.24,456,471,451.92,472.14,445a52.33,52.33,0,0,0,.64-8.39q.06-98,0-196a51.2,51.2,0,0,0-.64-8.39c-1.25-7.48-5.27-11.36-12.89-12.38a68.37,68.37,0,0,0-9.06-.39l-517.95,0A94.31,94.31,0,0,1-78.13,219c-7.86-.86-12.53-5.63-13.37-13.43a56.67,56.67,0,0,1-.14-5.83q0-117.81,0-235.62v-1.94c.12-14.17,5.53-19.56,19.73-19.56H489.52c3.46,0,6.94.06,10.38-.23,8.06-.69,12.66-5.07,13.71-13a65.45,65.45,0,0,0,.45-8.41q0-92.82,0-185.63c0-3.87-.38-7.74-.59-11.67,1.65-1.33,3.68-.73,5.56-.73q163.23,0,326.48,0c1.08,0,2.16.05,3.24,0,2.14-.1,3.22.79,3.15,3-.06,1.73,0,3.46,0,5.19V-19.59c0,13.92-3.7,17.69-17.7,17.69q-156.42,0-312.85,0a71.58,71.58,0,0,0-8.42.23c-8.11,1-12.34,5.44-13,13.59-.18,2.15-.1,4.32-.1,6.49V152.79c0,18.33,3.47,21.75,22.13,21.75H830.24c2.38,0,4.76-.08,7.13.06,8.78.5,13.44,4.91,14.36,13.66a67.76,67.76,0,0,1,.15,7.13q0,142.8,0,285.59c0,2.16-.06,4.33.05,6.49.42,8.55,4.56,13,13.07,14.14a45.47,45.47,0,0,0,5.84.18h161c12.88.25,18-5.86,18-18.12q-.29-144.74-.1-289.47a58.35,58.35,0,0,1,.17-7.13c.92-7.32,5.42-11.64,12.79-12.38a63.58,63.58,0,0,1,6.48-.16q112.62,0,225.23,0C1296.71,174.56,1299.12,174.07,1301.39,175.09Z" transform="translate(810.37 282.25)"/><path class="cls-4" d="M-273.08,935H-803.2c-9.27,0-7.57-.25-5.72-7.21q87.18-328.36,174.47-656.69Q-562.72,1-491-269.08c2.4-9.05.27-7.94,10-7.94q148,0,296,0h8c-1.43,1.85-3,2-4.34,2.36C-236.73-258.07-277-223-305.21-173.37c-17.76,31.22-28,65-33.1,100.4-2.93,20.39-3.87,40.87-3.87,61.45q.07,397.22-.24,794.43c-.1,45.68,14.57,85.05,41.66,120.73a222.73,222.73,0,0,0,23.88,26.47C-275.65,931.28-274.06,932.15-273.08,935Z" transform="translate(810.37 282.25)"/><path class="cls-4" d="M1421.94-276.27c-3,11.46-6,22.94-9,34.41q-31,116.55-62,233.09c-.38,1.46-.86,2.91-1.16,4.39a2.72,2.72,0,0,1-3.13,2.5c-1.51-.06-3,0-4.55,0q-136.29,0-272.59.1c-15.26,0-20-5.56-20-20.1.29-82.43.13-164.85.16-247.28,0-9-1.14-7.86,8-7.86q178.49,0,357,0C1417-277,1419.35-277.55,1421.94-276.27Z" transform="translate(810.37 282.25)"/></g><g id="Calque_6" data-name="Calque 6"><path class="cls-1" d="M-346.84,381.24c0-137.22-.25-274.44.14-411.66.14-50.16,10.53-98.22,34.6-142.71,28.22-52.16,69.46-89,126.84-106.45a49.64,49.64,0,0,1,14.64-2.67q339.69.11,679.39.07c8.19,0,8.7.28,8.7,8.2q.09,98.24,0,196.46c0,11.14-5.47,16.47-16.52,17.09-2.5.14-5,0-7.5,0H-69c-2.75,0-5.5-.07-8.25,0-10.63.39-16,5.45-17.07,16-.19,2-.11,4-.11,6q0,117.73,0,235.46a48.79,48.79,0,0,0,.62,9.68c1.49,7.34,5.87,11.25,13.33,12.07a96.5,96.5,0,0,0,10.49.28q261.33,0,522.67,0c2.74,0,5.51-.15,8.24.1,8.64.8,13.56,5.72,14.44,14.41a80.82,80.82,0,0,1,.23,8.24q0,97.86,0,195.71a70.45,70.45,0,0,1-.25,8.23c-.94,7.93-5.73,12.63-13.67,13.41-3,.29-6,.19-9,.19H-73.68c-15.74.06-20.73,5-20.73,20.58q0,126,0,252a46.77,46.77,0,0,0,.57,8.94c1.52,7.78,6,11.67,13.85,12.33,3,.25,6,.15,9,.15H492.93c2.25,0,4.5,0,6.75,0,12.08.34,17.7,5.51,17.74,17.42.14,55.24,0,110.48.14,165.72,0,3.77-.95,5.69-5,5.18a37.52,37.52,0,0,0-4.5,0q-387.69,0-775.38.13A19,19,0,0,1-281.82,936c-31.12-30.4-53.34-65.83-62.43-108.82-2.45-11.56-2.7-23.29-2.7-35.05q0-205.45,0-410.92Z" transform="translate(810.37 282.25)"/><path class="cls-1" d="M1360.36-4.35c-1.23,9.23-4.07,17.49-6.28,25.86q-19,72-38.35,144c-2.16,8.08-2.16,8.09-10.2,8.09H1079.79c-17.69,0-21.14,3.43-21.14,20.9V481c0,2.25.06,4.5,0,6.75-.42,10.95-5.2,15.73-16.28,16.33-1.74.09-3.5.07-5.24.07H880.36a71.9,71.9,0,0,1-7.49-.21c-9.13-.95-13.31-5.36-13.84-14.54-.16-2.74-.11-5.5-.11-8.25V196.89c0-20.25-3.08-23.3-23.55-23.3h-309c-20,0-23.06-3.05-23.07-23q0-66.38,0-132.74c0-2,0-4,.06-6,.51-11,5.25-15.8,16.3-16.16,4.74-.16,9.5,0,14.25,0h303c19.71,0,22-2.32,22-21.9q0-123.73,0-247.47c0-9.62-1-8.45,8.3-8.45q91.88-.06,183.74,0c7.64,0,7.67,0,7.67,7.68V-26.29c0,2.75-.08,5.51.12,8.25.58,8.09,5.14,12.79,13.25,13.52,3.23.29,6.5.17,9.74.17h278.6Z" transform="translate(810.37 282.25)"/></g></g></svg>